Coordinates
version=1
nRows=14
nColumns=24
inDegrees=yes

Units are S.I. units (second, meters, Newtons, ...)
Angles are in degrees.

endheader
time	pelvis_tilt	pelvis_list	pelvis_rotation	pelvis_tx	pelvis_ty	pelvis_tz	hip_flexion_r	hip_adduction_r	hip_rotation_r	knee_angle_r	ankle_angle_r	subtalar_angle_r	mtp_angle_r	hip_flexion_l	hip_adduction_l	hip_rotation_l	knee_angle_l	ankle_angle_l	subtalar_angle_l	mtp_angle_l	lumbar_extension	lumbar_bending	lumbar_rotation
      0.78150000	     -0.44891521	     -1.58384976	      2.15822906	     -0.47432314	      0.99716563	      0.31847516	     10.18283193	      5.36674055	     -5.84687747	    -15.88831580	      7.74995942	     -5.47086404	      3.99441983	     19.14570715	     -1.26095458	      0.88883594	    -69.43028416	     -7.02768304	     -7.67919625	      1.73364274	     -0.26954490	      5.18023743	      2.51377166
      0.78566667	     -0.39168554	     -1.50695265	      2.10498334	     -0.46925373	      0.99785003	      0.31876632	      9.62840104	      5.31168518	     -5.89688412	    -15.56865207	      7.88141712	     -5.14114300	      4.02891969	     19.63699545	     -1.14248254	      0.88903442	    -69.20495031	     -6.37727919	     -7.80140402	      1.65664979	     -0.36175311	      5.10215763	      2.74114504
      0.78983333	     -0.37693046	     -1.41876546	      2.02852973	     -0.46422433	      0.99843185	      0.31908003	      9.14488907	      5.24460146	     -5.91966581	    -15.29790089	      8.01532353	     -4.88234854	      4.06852777	     20.16081155	     -1.01710839	      0.85825125	    -68.92882503	     -5.70813469	     -7.98699631	      1.56764924	     -0.41393465	      5.00482331	      2.92454541
      0.79400000	     -0.34401859	     -1.33170933	      1.94412160	     -0.45918745	      0.99901510	      0.31941359	      8.63594660	      5.18444782	     -5.91351198	    -15.01458022	      8.13836118	     -4.68482062	      4.10106176	     20.64532768	     -0.90178362	      0.81216912	    -68.59418103	     -5.03315209	     -8.17236388	      1.49819956	     -0.48080997	      4.91274870	      3.07272097
      0.79816667	     -0.35139712	     -1.26251901	      1.84954476	     -0.45420381	      0.99945639	      0.31976832	      8.18733522	      5.14575500	     -5.88208210	    -14.75560275	      8.25217717	     -4.54102730	      4.12040794	     21.17444118	     -0.81212009	      0.75637446	    -68.23587300	     -4.34818931	     -8.37613143	      1.46437114	     -0.50971822	      4.82750432	      3.18338716
      0.80233333	     -0.31708964	     -1.16644962	      1.75481249	     -0.44917754	      0.99997952	      0.32010514	      7.67826789	      5.07661877	     -5.84924833	    -14.47040052	      8.37977930	     -4.31344338	      4.15266530	     21.62184296	     -0.69291194	      0.69857293	    -67.78976742	     -3.67709286	     -8.49578237	      1.39408012	     -0.58506628	      4.73045907	      3.41477128
      0.80650000	     -0.32158207	     -1.09475477	      1.65027396	     -0.44418630	      1.00037683	      0.32046218	      7.22503655	      5.03511081	     -5.79975271	    -14.20610398	      8.49708003	     -4.14485653	      4.18296961	     22.10886672	     -0.60878478	      0.62885953	    -67.31661500	     -3.01201598	     -8.64544649	      1.32207082	     -0.61306638	      4.65057473	      3.59331222
      0.81066667	     -0.34715064	     -1.01684007	      1.53844938	     -0.43922807	      1.00070328	      0.32081704	      6.80581629	      4.98672739	     -5.72680795	    -13.96135557	      8.60252451	     -4.03250336	      4.19744992	     22.60581354	     -0.51837877	      0.55042297	    -66.79625665	     -2.37068274	     -8.83737396	      1.29187467	     -0.62611984	      4.56134997	      3.68842561
      0.81483333	     -0.34851232	     -0.93977170	      1.42321816	     -0.43424844	      1.00102281	      0.32118171	      6.35153315	      4.93976331	     -5.65578270	    -13.69722895	      8.72646188	     -3.85549369	      4.22596465	     23.05538091	     -0.43935446	      0.46374227	    -66.22157696	     -1.74635493	     -8.92250215	      1.20662750	     -0.65993772	      4.47130876	      3.94166127
      0.81900000	     -0.38777543	     -0.86394046	      1.30828731	     -0.42930896	      1.00124963	      0.32152141	      5.95215015	      4.89197456	     -5.56665558	    -13.45644070	      8.82731756	     -3.75581310	      4.23713439	     23.53572907	     -0.35344611	      0.38351562	    -65.60421856	     -1.16461749	     -9.10010375	      1.17792327	     -0.66003932	      4.38550101	      4.01737742
      0.82316667	     -0.38740346	     -0.78708350	      1.17682318	     -0.42433241	      1.00149132	      0.32189688	      5.50246635	      4.84440837	     -5.47592960	    -13.20370228	      8.94362904	     -3.60176388	      4.25998326	     23.94681602	     -0.28871157	      0.27183154	    -64.93076799	     -0.59451532	     -9.17655963	      1.08573556	     -0.69206474	      4.29173582	      4.26419994
      0.82733333	     -0.45275601	     -0.72521304	      1.06768591	     -0.41940485	      1.00158908	      0.32221930	      5.13410086	      4.81059775	     -5.37800483	    -12.96463299	      9.03987841	     -3.51157331	      4.26848098	     24.42803554	     -0.21709103	      0.20348079	    -64.22803291	     -0.08594895	     -9.33271574	      1.05806812	     -0.66228892	      4.22122136	      4.32578929
      0.83150000	     -0.44311668	     -0.65675767	      0.92830658	     -0.41444053	      1.00177200	      0.32258120	      4.67662299	      4.77157022	     -5.25995071	    -12.71154021	      9.13895185	     -3.39542336	      4.28833677	     24.79244510	     -0.16647268	      0.08610508	    -63.45820803	      0.40775415	     -9.39750682	      0.93377741	     -0.71128760	      4.15119804	      4.58425727
      0.83566667	     -0.50072498	     -0.59618366	      0.79105186	     -0.40951726	      1.00179678	      0.32292035	      4.30992148	      4.73689260	     -5.13695558	    -12.49050187	      9.22648634	     -3.30935392	      4.29776530	     25.22472016	     -0.11697567	     -0.01932121	    -62.65888711	      0.85434620	     -9.52425828	      0.87529895	     -0.68525479	      4.08613548	      4.66139641
